<svg xmlns="http://www.w3.org/2000/svg" version="1.1" xmlns:xlink="http://www.w3.org/1999/xlink" width="1000" height="1000"><g clip-path="url(#SvgjsClipPath1285)"><rect width="1000" height="1000" fill="#ffffff"></rect><g transform="matrix(9.523809523809524,0,0,9.523809523809524,142.85714285714283,100)"><svg xmlns="http://www.w3.org/2000/svg" width="75" height="84" viewBox="0 0 75 84" fill="none"><path d="M26.6023 60.877L37.5 71.62L48.3977 60.877L37.5 50.134L26.6023 60.877ZM37.5 8.73979V8.75595C34.3809 8.75595 31.2618 9.92987 28.8857 12.2723L28.8747 12.2616C26.504 14.604 25.3132 17.6842 25.3132 20.7644C25.3132 23.85 26.4985 26.9248 28.8638 29.2565H28.8802L37.5 37.7486L46.1143 29.2565H46.1307C48.5124 26.9086 49.7032 23.8338 49.7032 20.7644H49.6868C49.6868 17.6896 48.496 14.6148 46.1198 12.2723C43.7272 9.9191 40.6082 8.73979 37.5 8.73979ZM54.6795 67.0697L40.6409 80.909L37.5 84.0054L34.3591 80.909L20.3205 67.0697L6.28186 80.909L0 74.7163L31.2236 43.9413L22.6092 35.4492L22.6202 35.4384C18.496 31.3782 16.4366 26.0632 16.4366 20.7644C16.4366 15.4602 18.496 10.1507 22.6092 6.09578V6.08501C26.7225 2.03013 32.114 0 37.5 0V0.0161549C42.8969 0.0161549 48.2939 2.0409 52.3962 6.08501C56.5095 10.1399 58.5634 15.4548 58.5634 20.7698H58.547C58.547 26.0794 56.4931 31.3889 52.3853 35.4438L52.3962 35.4546L43.7819 43.9413L75 74.7163L68.7181 80.909L54.6795 67.0697Z" fill="#55281D"></path></svg></g></g><defs><clipPath id="SvgjsClipPath1285"><rect width="1000" height="1000" x="0" y="0" rx="350" ry="350"></rect></clipPath></defs></svg>